# xmcd CD database file
#
# Track frame offsets:
#	150
#	9057
#	24497
#	36886
#	50328
#	60909
#	73433
#	80694
#	91653
#	104339
#	117781
#	131412
#	141750
#	155192
#	166043
#	175841
#	186881
#	200350
#	213198
#	224940
#	240434
#	249665
#
# Disc length: 3480 seconds
#
# Revision: 1
# Processed by: cddbd v1.5.2PL0 Copyright (c) Steve Scherf et al.
# Submitted via: CDex 1.51
#
DISCID=2e0d9616
DTITLE=José Roberto - 1
DYEAR=1900
DGENRE=Country
TTITLE0=Musica 01
TTITLE1=Musica 02
TTITLE2=Musica 03
TTITLE3=Musica 04
TTITLE4=Musica 05
TTITLE5=Musica 06
TTITLE6=Musica 07
TTITLE7=Musica 08
TTITLE8=Musica 09
TTITLE9=Musica 10
TTITLE10=Musica 11
TTITLE11=Musica 12
TTITLE12=Musica 13
TTITLE13=Musica 14
TTITLE14=Musica 15
TTITLE15=Musica 16
TTITLE16=Musica 17
TTITLE17=Musica 18
TTITLE18=Musica 19
TTITLE19=Musica 20
TTITLE20=Musica 21
TTITLE21=Musica 22
EXTD=
EXTT0=
EXTT1=
EXTT2=
EXTT3=
EXTT4=
EXTT5=
EXTT6=
EXTT7=
EXTT8=
EXTT9=
EXTT10=
EXTT11=
EXTT12=
EXTT13=
EXTT14=
EXTT15=
EXTT16=
EXTT17=
EXTT18=
EXTT19=
EXTT20=
EXTT21=
PLAYORDER=
